<?xml version="1.0" encoding="UTF-8"?>
<svg xmlns="http://www.w3.org/2000/svg" xmlns:xlink="http://www.w3.org/1999/xlink" width="921pt" height="354pt" viewBox="0 0 921 354" version="1.1">
<g id="surface1">
<path style=" stroke:none;fill-rule:evenodd;fill:rgb(0%,54.492188%,75.389099%);fill-opacity:1;" d="M 0 354.117188 C 2.136719 354.519531 7.589844 354.230469 10.085938 354.230469 C 259.222656 354.230469 508.359375 354.230469 757.496094 354.230469 C 793.726563 354.230469 810.898438 356.238281 844.324219 341.140625 C 854.199219 336.679688 860.570313 331.859375 868.890625 325.960938 C 874.492188 321.988281 878.734375 317.542969 883.414063 312.914063 L 889.226563 306.523438 C 904.226563 288.414063 916.683594 264.65625 919.898438 237.632813 C 921.402344 224.976563 921.113281 212.300781 921.113281 199.011719 L 921.113281 79.503906 C 921.113281 66.257813 921.113281 53.011719 921.113281 39.761719 C 921.113281 26.632813 921.453125 13.054688 921.101563 0 L 0.0429688 0.132813 Z M 0 354.117188 "/>
<path style=" stroke:none;fill-rule:evenodd;fill:rgb(100%,100%,100%);fill-opacity:1;" d="M 431.332031 154.832031 C 431.300781 149.355469 430.960938 145.277344 434.382813 142.519531 C 437.5625 139.957031 442.085938 139.699219 447.109375 140.089844 L 446.941406 144.871094 C 439.757813 145.515625 436.097656 143.148438 436.957031 154.949219 L 447.710938 154.988281 L 447.546875 159.761719 L 425.007813 159.613281 C 424.816406 159.257813 424.921875 159.640625 424.792969 158.9375 L 424.816406 154.988281 Z M 403.992188 169.699219 C 402.363281 171.191406 400.910156 171.886719 399.914063 174.523438 C 397.386719 181.199219 400.441406 187.957031 409.304688 190.039063 C 414.816406 191.332031 436.476563 190.816406 443.605469 190.816406 C 460.566406 190.816406 463.855469 193.039063 464.066406 184.800781 C 464.273438 176.597656 464 166.761719 464 158.402344 C 464 145.074219 464.878906 146.753906 458.777344 146.082031 L 458.792969 140.828125 C 461.488281 140.542969 465.191406 140.746094 467.996094 140.746094 C 472.675781 140.746094 474.738281 140.007813 475.019531 142.722656 C 475.382813 146.195313 475.039063 173.214844 475.046875 179.289063 C 475.054688 185.214844 476.675781 189.398438 481.738281 190.507813 C 484.6875 191.148438 496.074219 190.980469 499.648438 190.792969 C 503.023438 190.613281 503.699219 189.496094 503.914063 186.214844 C 504.242188 181.210938 503.960938 164.703125 503.960938 158.984375 C 503.960938 146.777344 505.09375 146.429688 498.65625 146.34375 L 498.683594 140.871094 C 501.421875 140.941406 512.679688 140.363281 514.164063 141.152344 C 515.109375 141.960938 515.027344 142.300781 515.023438 143.882813 L 515.070313 168.265625 C 515.070313 177.21875 513.359375 187.480469 520.90625 190.261719 C 523.292969 191.140625 531.296875 190.96875 533.933594 190.574219 C 538.417969 189.910156 541.191406 188.589844 542.953125 185.707031 C 546.671875 179.636719 543.109375 170.992188 548.085938 162.996094 C 556.765625 149.042969 588.273438 151.5625 589.675781 174.34375 C 590.140625 181.941406 587.839844 184.164063 589.070313 186.53125 C 590.929688 190.109375 593.679688 190.746094 598.953125 190.734375 C 602.320313 190.722656 609.964844 191.132813 612.816406 190.589844 L 612.84375 153.472656 C 612.84375 147.566406 613.78125 146.597656 607.585938 146.480469 L 607.707031 141.082031 L 621.625 141.0625 C 623.226563 141.125 623.75 141.398438 623.925781 143.027344 C 624.449219 147.890625 623.953125 156.082031 623.953125 161.304688 C 623.953125 167.148438 624.285156 194.464844 623.84375 197.808594 C 617.109375 198.367188 607.679688 197.925781 600.695313 197.871094 C 592.238281 197.804688 589.730469 194.511719 587.332031 188.003906 C 586.796875 188.53125 586.28125 189.4375 585.757813 190.1875 C 582.25 195.203125 575.785156 197.585938 569.503906 198.292969 C 565.246094 198.769531 560.5625 198.496094 556.726563 197.351563 C 554.882813 196.800781 553.417969 196.246094 551.71875 195.429688 C 545.007813 192.203125 549.042969 192.390625 543.332031 195.347656 C 541.976563 196.050781 540.578125 196.570313 539.097656 196.964844 C 533.746094 198.378906 523.710938 198.816406 519.371094 195.257813 C 516.4375 192.851563 516.238281 191.027344 515.265625 189.234375 C 514.773438 188.328125 515.078125 188.847656 514.679688 188.425781 C 513.121094 198.164063 504.609375 197.871094 494.421875 197.871094 C 486.074219 197.871094 478.222656 199.066406 474.867188 188.09375 C 473.285156 191.933594 473.25 194.960938 467.804688 196.792969 C 463.703125 198.171875 457.570313 197.871094 452.898438 197.871094 C 442.347656 197.871094 431.796875 197.863281 421.246094 197.871094 C 410.367188 197.878906 401.570313 197.316406 396.820313 190.359375 C 391.734375 182.90625 392.867188 172.832031 397.597656 165.894531 C 400.296875 165.894531 401.9375 165.621094 403.984375 166.238281 Z M 551.628906 187.832031 C 555.964844 192.5625 567.398438 195.0625 574.347656 190.390625 C 580.527344 186.238281 580.199219 172.519531 577.585938 166.695313 C 574.351563 159.496094 563.492188 157.25 557.878906 163.78125 C 554.109375 168.167969 555.136719 174.191406 553.53125 182.117188 C 553.101563 184.238281 551.886719 186.140625 551.628906 187.832031 Z M 633.589844 143.609375 C 633.582031 140.144531 632.210938 141.128906 647.445313 141.128906 C 649.800781 141.128906 649.96875 141.921875 649.972656 144.1875 L 649.894531 198.105469 L 638.914063 197.972656 C 638.613281 194.945313 638.851563 161.5625 638.851563 155.503906 C 638.851563 147.160156 639.867188 146.746094 633.644531 146.613281 Z M 358.519531 158.964844 L 374.726563 158.96875 L 374.738281 198.027344 C 371.4375 198.339844 358.996094 198.40625 356.039063 197.902344 C 350.722656 196.996094 348.089844 193.386719 346.410156 188.511719 C 346.359375 188.574219 346.296875 188.59375 346.277344 188.707031 L 345.511719 190.636719 C 345.246094 191.425781 345.011719 191.839844 344.574219 192.628906 C 340.542969 199.890625 327.730469 199.003906 323.480469 195.730469 C 322.03125 194.617188 320.457031 192.585938 319.6875 190.8125 C 319.515625 190.410156 319.457031 190.171875 319.292969 189.78125 L 318.746094 188.734375 C 317.679688 190.554688 317.691406 194.722656 312.011719 196.925781 C 307.175781 198.800781 289.789063 198.105469 283.613281 198.105469 C 279.199219 198.105469 273.441406 198.441406 269.308594 197.601563 C 260.015625 195.71875 263.109375 193.117188 258.816406 195.414063 C 255.414063 197.234375 251.183594 198.109375 246.738281 198.109375 C 237.082031 198.109375 226.652344 197.730469 217.089844 198.140625 C 215.253906 201.535156 208.03125 210.1875 204.828125 210.800781 C 203.578125 211.039063 198.074219 210.90625 196.621094 210.78125 L 196.480469 205.972656 C 198.199219 204.964844 199.378906 205.316406 202.476563 202.949219 C 203.75 201.976563 206.402344 199.578125 206.945313 198.15625 L 182 198.101563 C 179.746094 192.453125 177.449219 188.207031 177.757813 181.023438 C 178.277344 169 187.417969 160.84375 198.769531 159.210938 C 201.582031 158.808594 217.144531 158.613281 219.875 159.070313 L 219.914063 190.980469 C 224.882813 191.140625 246.136719 191.140625 250.3125 190.699219 C 249.671875 189.234375 249.734375 189.964844 248.15625 188.601563 C 247.3125 187.871094 246.703125 187.335938 245.960938 186.71875 C 244.390625 185.414063 243.132813 184.269531 241.410156 182.871094 C 239.328125 181.179688 233.832031 176.28125 232.203125 175.246094 C 231.738281 168.75 238.097656 163.742188 241.941406 161.4375 C 246.910156 158.460938 253.472656 156.761719 260.671875 156.652344 C 267.726563 156.546875 274.742188 158.292969 279.621094 161.234375 C 283.914063 163.820313 289.734375 168.027344 289.722656 174.9375 L 280.535156 182.597656 C 277.460938 184.976563 274.425781 188.03125 271.328125 190.1875 C 271.921875 190.800781 271.230469 190.308594 272.03125 190.644531 L 274.304688 190.984375 C 280.289063 191.257813 294.148438 190.996094 300.453125 190.992188 C 306.859375 190.992188 308.832031 191.535156 308.792969 184.511719 C 308.785156 183.089844 308.984375 178.195313 308.621094 177.195313 C 307.890625 175.1875 305.222656 175.746094 302.695313 175.632813 L 302.699219 170.054688 C 305.527344 169.902344 316.695313 169.675781 318.875 170.164063 C 319.441406 181.859375 316.335938 191.308594 330.660156 190.996094 C 333.511719 190.933594 335.449219 190.722656 336.09375 188.246094 C 336.460938 186.835938 336.601563 173.902344 336.359375 172.347656 C 335.929688 169.589844 332.898438 170.585938 330.246094 170.113281 L 330.25 164.6875 L 346.449219 164.570313 C 347.308594 175.082031 343.328125 188.691406 353.4375 190.773438 C 355.351563 191.167969 362.550781 191.132813 364.667969 190.917969 C 364.890625 185.679688 364.640625 180.195313 364.632813 174.9375 C 364.621094 164.96875 366.035156 164.433594 358.65625 164.65625 L 358.523438 158.964844 Z M 242.132813 172.945313 C 243.9375 161.007813 278.675781 160.90625 279.828125 172.960938 C 278.457031 174.308594 276.585938 175.59375 275.09375 176.871094 C 273.246094 178.457031 262.117188 188.175781 260.964844 188.707031 C 257.863281 186.035156 254.625 183.671875 251.480469 180.929688 C 248.363281 178.210938 245.207031 175.523438 242.132813 172.945313 Z M 191.265625 190.890625 C 189.886719 187.554688 188.941406 185.726563 188.832031 181.320313 C 188.730469 177.199219 189.285156 174.667969 191.132813 171.886719 C 194.972656 166.121094 199.878906 165.804688 208.796875 166.09375 L 208.78125 190.996094 Z M 167.863281 172.800781 L 167.929688 172.820313 L 168 172.960938 C 168.214844 173.414063 168.296875 174.679688 168.339844 175.203125 C 168.394531 175.917969 168.433594 176.636719 168.460938 177.355469 C 168.582031 180.199219 168.601563 183.050781 168.601563 185.898438 C 168.605469 188.355469 168.585938 190.8125 168.550781 193.265625 C 168.527344 194.796875 168.503906 196.328125 168.457031 197.859375 L 168.449219 198.203125 L 121.917969 198.230469 L 121.835938 190.835938 L 122.195313 190.839844 C 127.976563 190.886719 133.757813 190.921875 139.535156 190.9375 C 143.535156 190.949219 147.539063 190.953125 151.539063 190.910156 C 152.925781 190.898438 154.316406 190.878906 155.703125 190.835938 C 156.140625 190.820313 156.574219 190.804688 157.007813 190.777344 C 157.210938 190.765625 157.472656 190.753906 157.667969 190.703125 L 157.742188 175.59375 L 157.742188 175.585938 C 157.910156 172.769531 157.195313 169.859375 155.785156 167.421875 C 154.304688 164.851563 152.078125 162.828125 149.277344 161.800781 C 146.203125 160.675781 142.398438 160.574219 139.210938 161.253906 C 135.777344 161.980469 134.734375 162.980469 133.589844 166.257813 L 133.507813 166.496094 L 127.160156 166.4375 L 127.296875 157.503906 L 133.175781 155.785156 L 133.195313 155.78125 C 136.472656 155.234375 139.882813 155.003906 143.203125 155.066406 C 146.71875 155.136719 150.484375 155.546875 153.839844 156.640625 C 154.703125 156.921875 155.546875 157.265625 156.367188 157.648438 C 158.738281 158.765625 161.378906 160.472656 163.144531 162.425781 C 163.742188 163.085938 164.269531 163.835938 164.757813 164.585938 C 165.414063 165.589844 166.007813 166.636719 166.519531 167.71875 C 167.222656 169.214844 167.933594 171.128906 167.863281 172.800781 Z M 167.863281 172.800781 "/>
<path style=" stroke:none;fill-rule:evenodd;fill:rgb(100%,100%,100%);fill-opacity:1;" d="M 121.972656 244.980469 L 136.574219 244.988281 L 136.75 248.6875 L 132.414063 248.695313 L 132.296875 265.132813 C 133.113281 264.820313 141.839844 255.460938 143.480469 253.660156 C 144.402344 252.648438 146.546875 251.03125 146.441406 249.28125 C 145.570313 248.707031 145.359375 248.691406 143.878906 248.683594 L 143.832031 245.023438 L 157.171875 245 L 157.179688 248.675781 C 153.386719 248.671875 152.386719 250.554688 149.035156 253.988281 C 147.378906 255.6875 143.492188 259.085938 142.40625 260.796875 C 142.558594 261.296875 152.59375 276.949219 154.347656 278.820313 C 155.386719 279.929688 155.917969 279.605469 157.128906 279.90625 C 158.316406 280.199219 157.601563 283.058594 157.570313 283.09375 L 147.867188 283.285156 C 147.347656 279.347656 148.347656 280.871094 146.335938 277.867188 C 145.269531 276.285156 144.476563 275.113281 143.511719 273.710938 C 142.304688 271.949219 139.046875 266.527344 137.847656 265.476563 C 137.226563 265.828125 133.347656 269.5625 132.800781 270.257813 C 131.796875 271.535156 132.234375 277.519531 132.328125 279.683594 L 136.566406 279.808594 L 136.703125 283.328125 L 122.042969 283.351563 L 121.964844 279.820313 C 126.933594 279.636719 125.941406 279.011719 125.941406 274.140625 C 125.941406 271.351563 126.246094 250.835938 125.691406 249.707031 C 125.09375 248.5 123.628906 248.765625 121.960938 248.609375 Z M 366.636719 245.074219 C 367.675781 244.984375 375.464844 244.632813 376.308594 245.359375 C 377.449219 246.820313 376.746094 251.382813 376.746094 253.546875 L 376.746094 270.949219 C 376.746094 273.558594 376.238281 277.691406 377.234375 279.53125 C 378.085938 279.816406 377.933594 279.667969 378.863281 279.765625 C 380.53125 279.945313 379.871094 279.773438 380.167969 280.117188 C 380.507813 280.597656 380.507813 282.433594 380.210938 282.980469 C 379.566406 283.828125 372.949219 283.351563 371.679688 283.34375 C 371.164063 281.9375 370.984375 281.820313 370.988281 279.882813 C 368.984375 280.359375 369.050781 282.175781 364.75 283.292969 C 348.234375 287.574219 344.824219 263.121094 355.613281 256.171875 C 358.992188 253.996094 363.800781 253.699219 367.652344 255.457031 C 368.972656 256.058594 369.671875 256.925781 370.796875 257.40625 L 370.792969 248.703125 L 366.671875 248.65625 Z M 370.808594 260.699219 C 368.859375 259.894531 367.925781 258.441406 363.757813 258.527344 C 354.070313 258.730469 354.707031 271.765625 357.007813 276.25 C 359.519531 281.148438 365.105469 280.855469 369.308594 277.65625 C 370.578125 276.6875 370.839844 276.625 370.835938 274.445313 Z M 260.09375 282.089844 C 259.050781 282.8125 259.894531 282.226563 259.222656 283.320313 C 254.859375 283.523438 255.109375 283.601563 255.132813 280.824219 C 255.210938 270.898438 253.847656 272.082031 259.445313 272.121094 C 259.9375 274.855469 258.886719 278.269531 264.972656 279.460938 C 276.417969 281.707031 278.144531 270.566406 271.355469 267.8125 C 268.28125 266.566406 264.382813 266.039063 261.523438 264.566406 C 253.15625 260.253906 255.34375 250.519531 258.753906 247.570313 C 261.09375 245.550781 264.554688 244.492188 268.753906 244.664063 C 271.4375 244.773438 271.859375 245.195313 273.960938 245.867188 C 275.5625 246.382813 275.15625 245.460938 276.125 245.101563 C 276.707031 244.882813 278.859375 245 279.59375 245.023438 C 279.652344 247.164063 279.90625 253.425781 279.425781 255.15625 L 275.515625 255.132813 C 274.929688 253.550781 276.097656 249.648438 269.675781 248.832031 C 265.660156 248.320313 262.148438 249.449219 261.394531 252.808594 C 260.398438 257.242188 262.992188 258.867188 266.15625 259.9375 C 271.832031 261.859375 279.429688 262.363281 280.789063 269.660156 C 282.171875 277.09375 278.6875 282.6875 270.808594 283.605469 C 265.578125 284.214844 264.199219 283.277344 260.09375 282.089844 Z M 391.792969 245.265625 L 406.804688 245.257813 L 406.792969 248.863281 L 402.070313 248.914063 C 401.648438 254.984375 402.019531 262.378906 402.011719 268.628906 C 402.003906 275.808594 403.648438 279.488281 411.085938 279.523438 C 418.722656 279.5625 420.484375 276.261719 420.472656 268.917969 C 420.460938 263.101563 421 254.339844 420.398438 248.890625 L 415.738281 248.902344 L 415.75 245.265625 L 429.019531 245.242188 L 429.132813 248.863281 C 424.390625 249.164063 425.21875 248.933594 425.21875 258.476563 C 425.21875 262.625 425.472656 267.640625 425.152344 271.683594 C 424.480469 280.113281 419.613281 284.015625 410.507813 283.980469 C 393.164063 283.910156 395.714844 269.769531 395.714844 258.765625 C 395.714844 256.542969 395.734375 254.308594 395.726563 252.082031 C 395.714844 248.695313 394.992188 248.996094 391.851563 248.886719 Z M 597.269531 249.484375 C 595.902344 253.769531 589.089844 251.839844 590.871094 247.238281 C 592.246094 243.695313 598.609375 245.285156 597.269531 249.484375 Z M 164.902344 249.195313 C 163.808594 244.648438 170.722656 243.359375 171.457031 247.535156 C 172.3125 252.398438 165.816406 253.003906 164.902344 249.195313 Z M 468.429688 249.195313 C 467.601563 244.632813 474.636719 243.71875 475.148438 248.121094 C 475.671875 252.578125 469.140625 253.105469 468.429688 249.195313 Z M 235.550781 258.867188 C 235.578125 259.605469 239.710938 267.640625 231.460938 271.335938 C 226.902344 273.378906 223.316406 271.957031 220.371094 271.617188 C 215.28125 280.898438 237.617188 270.585938 238.933594 281.394531 C 240.03125 290.410156 232.460938 292.746094 224.378906 292.746094 C 219.886719 292.746094 215.054688 291.925781 213.257813 289.003906 C 212.273438 287.40625 212.207031 285.007813 213.125 283.195313 C 213.945313 281.578125 215.265625 280.546875 217.125 279.679688 C 216.648438 278.597656 214.890625 277.96875 215.25 274.792969 C 215.472656 272.792969 216.839844 271.28125 217.871094 270.371094 C 217.277344 269.457031 216.78125 269.425781 215.980469 268.023438 C 213.9375 264.445313 214.492188 260.941406 216.652344 258.011719 C 219.878906 253.636719 224.3125 254.621094 230.183594 254.621094 L 239.042969 254.652344 L 239.074219 258.382813 C 237.6875 258.390625 236.476563 258.351563 235.550781 258.867188 Z M 228.152344 281.023438 C 225.21875 281.023438 219.847656 280.496094 218.769531 281.882813 C 218.039063 282.824219 217.570313 284.628906 218.058594 286.210938 C 219.324219 290.316406 231.226563 289.699219 233.027344 285.976563 C 233.769531 284.441406 233.480469 282.867188 232.5 281.980469 C 231.410156 280.996094 229.980469 281.023438 228.152344 281.023438 Z M 223.53125 258.453125 C 220.921875 259.410156 219.417969 262.195313 220.589844 265.707031 C 221.484375 268.378906 224.648438 269.648438 227.859375 268.605469 C 233.824219 266.667969 231.632813 255.472656 223.53125 258.453125 Z M 161.527344 254.636719 C 163.929688 254.519531 169.214844 254.085938 170.96875 254.996094 C 172.414063 260.125 170.199219 275.800781 171.722656 279.460938 C 172.941406 279.929688 173.390625 279.765625 174.84375 279.824219 L 174.933594 283.273438 C 174.519531 283.324219 162.449219 283.675781 161.945313 283.074219 C 161.753906 282.589844 161.5 280.773438 161.886719 280.136719 C 162.234375 279.5625 164.386719 279.707031 164.976563 279.488281 C 165.566406 277.886719 165.707031 260.222656 165.007813 259.058594 C 164.257813 258.324219 164.652344 258.5 163.410156 258.394531 C 162.710938 258.335938 162.359375 258.441406 161.539063 258.308594 Z M 178.457031 254.707031 C 188.746094 253.933594 188.097656 254.496094 188.253906 258.613281 C 189.402344 258.160156 190.429688 257.121094 191.972656 256.246094 C 196.234375 253.832031 203.4375 253.398438 205.734375 256.804688 C 208.523438 260.949219 205.816406 277.527344 207.292969 279.328125 C 208.339844 280.011719 208.628906 279.804688 210.191406 279.839844 L 210.167969 283.339844 L 197.246094 283.347656 L 197.144531 279.816406 L 201.007813 279.792969 C 200.886719 274.832031 201.535156 266.402344 200.890625 261.96875 C 199.953125 255.515625 189.292969 261.210938 188.261719 261.570313 L 188.21875 279.800781 C 189.003906 279.792969 191.496094 279.488281 192.027344 280.132813 C 192.34375 280.632813 192.347656 282.382813 192.074219 282.957031 C 191.46875 283.816406 185.042969 283.359375 183.726563 283.359375 C 178.820313 283.359375 178.652344 283.847656 178.609375 281.980469 C 178.519531 278.234375 180.78125 280.488281 181.851563 279.507813 C 182.667969 278.761719 182.355469 264.003906 182.308594 261.066406 C 182.265625 258.269531 181.148438 258.386719 178.558594 258.417969 Z M 288.550781 261.167969 C 286.640625 261.171875 288.082031 261.1875 287.515625 260.945313 L 287.320313 256.625 C 291.75 254.167969 302.238281 253.058594 306.664063 256.335938 C 308.925781 258.007813 309.28125 260.59375 309.28125 263.988281 L 309.28125 275.882813 C 309.28125 279.257813 308.972656 279.730469 312.4375 279.851563 L 312.421875 282.910156 C 305.5 285.480469 304.574219 281.835938 303.359375 280.1875 C 302.207031 280.867188 301.429688 282.027344 299.769531 282.761719 C 298.289063 283.417969 296.484375 283.671875 294.648438 283.671875 C 285.152344 283.667969 284.304688 275.101563 286.273438 271.316406 C 289.910156 264.316406 299.96875 267.074219 303.378906 266.964844 C 303.214844 262.1875 303.847656 259.09375 298.964844 258.523438 C 292.335938 257.746094 292 261.15625 288.550781 261.167969 Z M 303.28125 270.511719 C 289.085938 267.464844 290.554688 276.503906 292.558594 278.542969 C 294.515625 280.53125 298.738281 280.039063 300.925781 278.667969 C 302.148438 277.90625 303.28125 277.46875 303.367188 275.613281 C 303.429688 274.277344 303.421875 271.8125 303.28125 270.511719 Z M 314.53125 254.855469 L 323.996094 254.71875 C 324.355469 261.246094 323.828125 268.164063 324.035156 274.71875 C 324.3125 283.425781 335.421875 277.734375 336.710938 276.460938 L 336.746094 258.539063 L 332.722656 258.382813 L 332.617188 254.761719 L 342.667969 254.75 L 342.671875 276.757813 C 342.664063 280.101563 343.160156 279.613281 344.886719 279.773438 C 345.972656 279.875 345.5625 279.566406 346.21875 280.082031 C 346.652344 280.757813 346.65625 282.996094 345.941406 283.285156 C 345.507813 283.460938 342.394531 283.359375 341.6875 283.359375 C 337.199219 283.363281 336.984375 284.191406 336.78125 279.585938 C 334.410156 280.761719 333.644531 282.570313 328.472656 283.523438 C 324.253906 284.296875 320.652344 283.238281 319.136719 280.738281 C 317.445313 277.9375 318.109375 267.921875 318.117188 263.117188 C 318.125 258.21875 318.179688 260.054688 317.175781 258.433594 L 314.558594 258.355469 Z M 562.753906 282.261719 L 562.671875 276.566406 C 563.769531 276.171875 564.910156 276.285156 566.234375 276.375 C 567.882813 281.882813 578.171875 280.933594 578.777344 276.371094 C 579.84375 268.3125 562.519531 275.449219 563.066406 262.886719 C 563.59375 250.691406 582.753906 255.03125 583.285156 256.222656 L 583.441406 261.554688 L 580.082031 261.726563 C 578.917969 260.074219 578.714844 258.320313 573.394531 258.542969 C 570.515625 258.664063 567.558594 259.964844 568.332031 263.265625 C 569.609375 268.703125 586.777344 263.671875 584.171875 276.820313 C 583.648438 279.480469 581.859375 281.414063 579.777344 282.53125 C 576.222656 284.4375 566.070313 284.347656 562.753906 282.261719 Z M 614.925781 258.679688 L 610.820313 258.742188 C 610.828125 263.402344 610.824219 268.046875 610.824219 272.691406 C 610.824219 281.941406 611.269531 279.25 617.625 280.148438 L 617.652344 283.238281 C 615.777344 283.816406 614.691406 283.976563 612.601563 283.976563 C 606.523438 283.972656 604.816406 281.265625 604.832031 275.300781 C 604.847656 269.785156 604.84375 264.261719 604.835938 258.746094 L 601.273438 258.707031 L 601.25 254.820313 L 604.835938 254.796875 L 604.847656 247.292969 L 610.742188 247.234375 L 610.824219 254.765625 C 617.214844 255.210938 617.378906 253.808594 617.386719 256.734375 C 617.398438 259.253906 617.351563 258.679688 614.925781 258.679688 Z M 430.820313 254.917969 C 440.558594 254.378906 440.507813 254.3125 440.582031 258.804688 C 442.480469 258.167969 443.363281 256.140625 448.449219 254.933594 C 451.945313 254.105469 456.128906 254.441406 457.929688 256.929688 C 460.832031 260.945313 458.355469 273.449219 459.433594 279.222656 C 460.429688 280.273438 460.714844 280.035156 462.554688 280.136719 L 462.539063 283.523438 L 449.519531 283.585938 L 449.484375 280.058594 L 453.285156 280.078125 C 453.570313 278.214844 453.574219 264.269531 453.289063 262.386719 C 452.304688 255.835938 442.316406 261.136719 440.589844 261.820313 L 440.558594 280.070313 C 444.429688 280.082031 444.875 279.230469 444.527344 283.476563 C 443.898438 283.609375 431.839844 283.976563 431.214844 283.300781 C 430.828125 282.707031 430.847656 280.910156 431.210938 280.320313 C 431.929688 279.835938 433.054688 280.148438 434.132813 279.761719 C 435.175781 277.890625 434.597656 272.035156 434.597656 269.210938 C 434.597656 266.0625 435.261719 261.113281 433.957031 258.871094 L 430.886719 258.65625 Z M 465.160156 254.835938 L 474.175781 254.882813 C 476.449219 257.960938 473.527344 275.839844 475.394531 279.832031 C 476.359375 280.082031 477.742188 279.933594 478.363281 280.328125 C 478.703125 280.914063 478.707031 282.707031 478.382813 283.324219 C 477.816406 283.957031 466.425781 283.59375 465.503906 283.617188 L 465.40625 280.03125 C 470.042969 280.132813 468.996094 279.976563 468.996094 269.210938 C 468.996094 266.117188 469.667969 261.09375 468.441406 258.867188 L 465.179688 258.648438 Z M 479.058594 258.476563 L 479.015625 254.941406 L 491.625 254.871094 L 491.585938 258.683594 L 487.742188 258.707031 L 494.992188 277.066406 L 498.335938 268.480469 C 499.167969 266.316406 501.699219 261.007813 500.875 259.011719 L 498.039063 258.601563 L 497.992188 254.886719 L 509.308594 254.871094 L 509.417969 258.597656 C 506.113281 259.082031 506.992188 258.722656 504.980469 263.523438 L 496.722656 283.613281 C 490.753906 283.625 491.789063 284.660156 489.878906 279.824219 L 482.273438 260.75 C 481.152344 258.058594 480.941406 259.390625 479.058594 258.476563 Z M 540.394531 254.886719 C 542.691406 254.75 547.636719 254.667969 549.523438 255.109375 C 550.242188 257.011719 549.992188 257.257813 550.246094 259.316406 C 551.3125 258.628906 553.65625 253.914063 560.222656 254.84375 C 560.710938 260.71875 560.890625 259.441406 556.5625 259.914063 C 553.050781 260.296875 552.429688 261.394531 550.203125 262.53125 L 550.15625 280.078125 C 551.429688 280.078125 553.582031 279.761719 554.449219 280.332031 C 554.453125 280.332031 555.429688 283.277344 553.875 283.546875 L 542.304688 283.625 C 540.554688 283.589844 540.257813 283.636719 540.542969 280.183594 C 545.195313 279.410156 544.160156 281.496094 544.160156 269.210938 C 544.160156 266.328125 544.714844 260.871094 543.65625 258.894531 L 540.417969 258.628906 Z M 587.375 254.84375 L 596.226563 254.886719 C 596.910156 255.464844 596.570313 254.910156 596.945313 255.785156 C 597.5625 257.21875 596.476563 276.832031 597.480469 279.691406 C 598.464844 280.089844 599.277344 280.058594 600.539063 280.097656 L 600.675781 283.582031 L 587.765625 283.597656 L 587.617188 280.078125 C 592.167969 279.898438 591.183594 280.5 591.183594 269.210938 C 591.183594 266.085938 591.84375 261.234375 590.667969 258.902344 L 587.359375 258.640625 Z M 620.445313 258.476563 L 620.464844 254.835938 L 631.5 254.847656 C 632.921875 254.898438 633.34375 254.597656 633.027344 258.578125 L 629.039063 258.714844 L 635.984375 275.742188 L 642.09375 261.796875 C 643.332031 258.691406 642.058594 258.710938 639.339844 258.6875 L 639.296875 254.917969 L 650.976563 254.878906 L 650.976563 258.695313 C 647.164063 258.699219 647.679688 260.566406 644.640625 267.296875 C 642.164063 272.789063 638.160156 283.320313 635.21875 287.453125 C 633 290.566406 631.230469 293.488281 625.199219 292.347656 L 625.195313 289.226563 C 626.78125 288.242188 629.640625 287.898438 632.449219 283.800781 C 633.511719 282.25 630.945313 277.933594 629.644531 274.8125 L 623.878906 261.4375 C 622.316406 257.703125 622.945313 259.640625 620.445313 258.476563 Z M 535.292969 276.839844 C 535.476563 278.113281 535.542969 279.980469 535.191406 280.945313 C 533.726563 282.585938 529.195313 283.683594 526.039063 283.871094 C 518.6875 284.3125 512.621094 282.125 510.367188 274.777344 C 507.5 265.433594 512.292969 252.628906 526.632813 254.78125 C 534.1875 255.914063 536.476563 261.601563 536.265625 270.144531 L 516.015625 270.230469 C 515.417969 273.460938 517.296875 278.894531 522.398438 279.902344 C 524.804688 280.375 527.574219 280.0625 529.519531 279.042969 C 532.882813 277.273438 529.984375 276.953125 535.292969 276.839844 Z M 516.082031 266.652344 L 530.191406 266.621094 C 530.847656 254.585938 515.824219 256.179688 516.082031 266.652344 Z M 516.082031 266.652344 "/>
<path style=" stroke:none;fill-rule:evenodd;fill:rgb(98.4375%,98.046875%,98.046875%);fill-opacity:1;" d="M 698.128906 62.265625 C 697.582031 64.003906 697.964844 141.613281 697.964844 145.640625 C 697.964844 155.835938 697.484375 220.121094 698.425781 228.730469 C 703.160156 272.101563 739.636719 307.703125 786.824219 307.660156 C 834.582031 307.621094 874.628906 267.902344 874.628906 219.898438 L 874.605469 62.21875 C 871.050781 61.070313 866.632813 60.230469 862.929688 59.222656 C 842.21875 53.601563 816.296875 44.964844 796.980469 35.992188 C 795.824219 35.453125 786.898438 31.339844 786.488281 31.296875 C 785.230469 31.171875 777.835938 35.019531 776.152344 35.796875 C 759.929688 43.28125 738.796875 50.652344 721.613281 55.875 Z M 698.128906 62.265625 "/>
<path style=" stroke:none;fill-rule:evenodd;fill:rgb(0%,54.492188%,75.389099%);fill-opacity:1;" d="M 781.890625 76.859375 C 779.246094 76.488281 776.484375 75.25 773.144531 74.878906 C 769.554688 74.480469 766.4375 74.476563 762.882813 74.800781 C 762.949219 74.859375 763.050781 74.851563 763.085938 74.960938 C 763.121094 75.066406 763.234375 75.082031 763.285156 75.113281 L 770.914063 78.574219 C 773.6875 80.035156 775.285156 81.6875 777.375 83.460938 C 774.140625 83.640625 769.792969 80.816406 755.605469 83.984375 C 749.578125 85.328125 744.984375 87.25 739.664063 89.8125 C 739.238281 90.015625 739.019531 90.085938 738.699219 90.289063 L 737.660156 91.230469 C 743.953125 90.453125 747.925781 89.617188 754.875 90.011719 C 761.171875 90.371094 764.726563 91.640625 770.222656 93.203125 C 769.324219 93.789063 765.878906 94.609375 764.65625 95.046875 C 759.019531 97.0625 754.707031 99.824219 750.253906 103.308594 C 745.453125 107.070313 741.414063 112.503906 738.398438 117.847656 L 737.40625 119.8125 C 736.933594 120.988281 737.574219 119.503906 737.035156 120.816406 C 737.121094 120.777344 737.242188 120.628906 737.289063 120.695313 L 744.53125 115.289063 C 746.839844 113.703125 749.71875 111.8125 752.445313 110.417969 C 756.992188 108.085938 765.933594 104.261719 772.132813 104.027344 C 771.6875 105.097656 769.554688 107.03125 767.808594 109.816406 C 763.90625 116.042969 762.101563 122.902344 761.136719 130.199219 C 761.019531 131.0625 760.894531 131.691406 761.292969 132.398438 C 763.242188 126.476563 770.570313 117.707031 775.472656 113.414063 C 776.488281 112.527344 780.695313 109.203125 782.410156 109.070313 C 782.636719 121.503906 782.578125 159.253906 781.308594 172.332031 C 779.445313 171.9375 778.558594 171.277344 776.222656 171.082031 C 776.875 172.859375 779.011719 173.554688 779.742188 175.960938 C 776.566406 175.542969 773.871094 175.332031 770.769531 175.785156 L 771.265625 176.230469 C 771.316406 176.265625 771.394531 176.316406 771.453125 176.351563 L 785.628906 183.121094 C 786.820313 183.574219 791.039063 180.996094 793.015625 179.984375 C 794.75 179.097656 799.179688 177.390625 800.417969 176.417969 C 798.121094 175.589844 794.636719 176.230469 792.066406 176.128906 C 793.03125 174.402344 795.464844 172.257813 795.859375 171.101563 L 791.199219 172.105469 C 790.441406 157.882813 789.3125 122.078125 790.21875 108.988281 C 793.476563 109.417969 800.214844 116.238281 802.441406 118.734375 C 804.503906 121.046875 807.566406 125.617188 809.359375 128.644531 C 810.082031 129.863281 810.542969 131.289063 811.523438 132.335938 C 811.761719 128.117188 809.398438 119.789063 808.035156 116.328125 C 807.125 114.007813 805.84375 111.625 804.746094 109.753906 C 802.867188 106.5625 801.054688 105.402344 800.449219 104.0625 C 805.90625 104.035156 815.859375 108.1875 819.867188 110.300781 C 827.824219 114.503906 828.308594 115.441406 834.203125 120.042969 C 835.050781 120.703125 834.46875 120.386719 835.496094 120.78125 C 834.105469 115.253906 826.691406 107.296875 822.570313 103.539063 C 817.324219 98.753906 809.65625 95.25 802.425781 93.441406 C 804.296875 91.613281 815.261719 90.160156 817.304688 90.023438 C 824.269531 89.5625 828.554688 90.425781 834.882813 91.214844 L 833.015625 89.925781 C 832.15625 89.515625 831.621094 89.214844 830.882813 88.863281 C 829.421875 88.171875 828.082031 87.648438 826.621094 87.050781 C 820.515625 84.558594 813.277344 82.789063 806.5625 82.511719 C 801.960938 82.320313 799.199219 83.21875 795.269531 83.519531 C 795.90625 82.277344 800.222656 79.433594 801.8125 78.539063 C 803.050781 77.839844 804.230469 77.195313 805.636719 76.582031 L 808.78125 75.382813 C 808.867188 75.347656 809.117188 75.234375 809.199219 75.191406 C 809.757813 74.90625 809.46875 75.078125 809.789063 74.835938 C 798.84375 73.675781 797.351563 75.828125 790.539063 76.9375 C 790.148438 73.972656 787.660156 65.25 786.242188 63.460938 C 784.554688 64.953125 782.5625 74.894531 781.890625 76.859375 Z M 781.890625 76.859375 "/>
<path style=" stroke:none;fill-rule:evenodd;fill:rgb(0%,54.492188%,75.389099%);fill-opacity:1;" d="M 785.84375 279.492188 C 788.542969 276.0625 794.503906 274.066406 800.476563 275.566406 C 803.058594 276.21875 805.503906 277.085938 808.125 277.753906 C 813.988281 279.242188 813.066406 278.796875 813.746094 275.507813 C 814.84375 270.175781 816.113281 264.695313 817.257813 259.261719 C 818.335938 254.160156 820.035156 248.039063 820.6875 242.933594 C 816.097656 243.125 813.226563 243.050781 809.089844 241.71875 C 805.589844 240.597656 794.210938 234.589844 789.488281 239.382813 C 786.695313 242.21875 786.265625 246.667969 785.324219 247.835938 C 781.949219 230.585938 768.835938 239.632813 761.707031 241.789063 C 757.707031 242.996094 754.742188 243.160156 750.226563 242.941406 L 757.789063 278.566406 C 765.265625 278.367188 772.269531 272.75 780.265625 276.078125 C 781.394531 276.550781 782.167969 276.949219 783.09375 277.589844 C 784.398438 278.492188 784.347656 279.066406 785.84375 279.492188 Z M 785.84375 279.492188 "/>
<path style=" stroke:none;fill-rule:evenodd;fill:rgb(0%,54.492188%,75.389099%);fill-opacity:1;" d="M 795.78125 204.851563 C 794.542969 204.046875 793.753906 203.730469 793.160156 202.71875 C 795.046875 201.695313 797.378906 199.765625 799.375 198.5 C 805.738281 194.46875 811.851563 190.746094 819.082031 187.421875 C 828.695313 183.003906 839.371094 179.636719 851.835938 179.222656 C 848.507813 177.519531 835.832031 178.558594 831.6875 179.128906 C 818.316406 180.976563 803.828125 186.707031 792.785156 193.949219 C 791.878906 194.546875 786.789063 198.050781 786.246094 198.046875 C 785.742188 198.046875 780.527344 194.4375 779.546875 193.816406 C 772.761719 189.535156 765.753906 185.949219 757.859375 183.296875 C 748.789063 180.25 731.023438 176.316406 720.683594 179.140625 C 723.859375 179.597656 727.0625 179.523438 730.371094 180.078125 C 733.148438 180.546875 736.339844 181.265625 738.898438 181.984375 C 751.964844 185.65625 762.507813 191.78125 773.644531 198.84375 C 775.25 199.859375 778.292969 201.828125 779.484375 202.992188 C 777.21875 204.371094 769.5625 210.089844 768.238281 210.582031 C 766.671875 209.730469 765.472656 208.59375 763.175781 209.308594 C 762.515625 211.449219 763.257813 211.804688 763.839844 213.515625 C 763.457031 214.027344 756.128906 219.167969 755.171875 219.59375 C 753.699219 218.929688 753.480469 217.742188 750.816406 217.738281 C 744.492188 217.730469 744.007813 226.132813 751.6875 226.03125 C 758.613281 225.945313 764.117188 220.917969 768.820313 218.8125 C 770.292969 219.628906 771.75 221.171875 774.285156 220.660156 C 775.617188 218.15625 773.960938 217.722656 773.484375 215.53125 C 776.0625 214.367188 785.582031 207.585938 786.242188 207.570313 L 798.460938 215.226563 C 799.035156 215.675781 798.730469 215.394531 799.078125 215.835938 C 798.476563 217.199219 797.335938 218.769531 798.101563 220.53125 C 800.632813 221.507813 801.769531 219.769531 803.398438 219.0625 C 804.433594 218.613281 806.558594 220.417969 807.675781 221.105469 C 810.335938 222.742188 814.277344 224.765625 817.425781 225.542969 C 821.449219 226.535156 827.042969 225.816406 826.566406 221.386719 C 826.300781 218.894531 822.042969 215.605469 817.601563 219.589844 C 816.066406 218.988281 809.695313 214.636719 808.691406 213.515625 C 809.15625 212.277344 810.425781 210.605469 809.152344 209.460938 C 807.542969 208.273438 805.457031 210.160156 804.246094 210.558594 C 803.210938 210.082031 802.214844 209.183594 801.332031 208.582031 Z M 795.78125 204.851563 "/>
<path style=" stroke:none;fill-rule:evenodd;fill:rgb(100%,100%,100%);fill-opacity:1;" d="M 168.996094 67.554688 C 167.9375 67.515625 166.878906 67.476563 165.820313 67.464844 C 165.09375 67.457031 164.367188 67.457031 163.644531 67.515625 C 162.84375 67.582031 161.953125 67.714844 161.328125 68.269531 C 160.96875 68.585938 160.714844 69.015625 160.492188 69.4375 C 160.167969 70.050781 159.875 70.679688 159.546875 71.292969 C 159.476563 71.421875 159.410156 71.554688 159.347656 71.6875 L 159.308594 71.777344 L 159.226563 71.832031 L 159.03125 71.972656 L 158.828125 71.839844 C 157.71875 71.113281 156.644531 70.324219 155.515625 69.628906 C 153.203125 68.207031 151 67.597656 148.320313 67.277344 C 142.574219 66.585938 136.542969 67.429688 131.769531 70.894531 C 126.152344 74.96875 123.875 81.476563 123.601563 88.195313 C 123.421875 92.570313 124.046875 97.074219 126.199219 100.945313 C 127.925781 104.054688 130.480469 106.449219 133.671875 108.011719 C 137.132813 109.710938 141.085938 110.304688 144.910156 110.039063 C 149.28125 109.734375 153.777344 108.277344 157.339844 105.695313 L 157.355469 105.683594 L 158.941406 104.785156 L 158.953125 109.152344 L 159.621094 109.664063 C 159.832031 109.746094 160.699219 109.753906 160.964844 109.765625 C 162.066406 109.808594 163.171875 109.828125 164.277344 109.84375 C 168.078125 109.90625 171.878906 109.929688 175.679688 109.945313 C 187.027344 110.003906 198.378906 110 209.726563 109.988281 C 220.5625 109.976563 231.398438 109.953125 242.234375 109.925781 C 247.996094 109.910156 253.753906 109.878906 259.511719 109.878906 C 262.308594 109.878906 265.101563 109.992188 267.898438 109.980469 C 270.582031 109.96875 273.277344 109.839844 275.917969 109.335938 C 278.0625 108.925781 280.140625 108.265625 282.097656 107.292969 C 282.410156 107.140625 282.703125 106.945313 282.996094 106.757813 C 283.25 106.597656 283.515625 106.4375 283.808594 106.359375 C 284.148438 106.265625 284.46875 106.300781 284.792969 106.421875 C 285.386719 106.648438 285.941406 106.980469 286.5 107.273438 C 286.902344 107.488281 287.308594 107.703125 287.730469 107.875 C 290.25 108.910156 293.109375 109.390625 295.804688 109.675781 C 299.019531 110.019531 302.261719 110.09375 305.492188 110.089844 C 310.007813 110.082031 314.523438 109.878906 319.039063 109.878906 L 386.113281 109.878906 C 390.777344 109.878906 395.875 109.339844 400.003906 107.019531 C 400.636719 106.664063 401.214844 106.253906 401.777344 105.800781 C 402.0625 105.570313 402.417969 105.253906 402.773438 105.160156 C 403.089844 105.078125 403.414063 105.160156 403.707031 105.277344 C 404.269531 105.492188 404.808594 105.824219 405.328125 106.132813 C 407.136719 107.214844 409.066406 108.140625 411.058594 108.828125 C 419.371094 111.703125 430.507813 111.242188 437.785156 105.941406 C 441.273438 103.398438 443.617188 99.953125 444.773438 95.800781 C 446.015625 91.339844 445.988281 85.359375 444.523438 80.957031 C 441.605469 72.179688 434.296875 67.515625 425.3125 66.671875 C 418 65.984375 410.054688 67.542969 405.1875 73.488281 C 404.230469 74.660156 403.433594 75.957031 402.816406 77.339844 C 401.292969 80.75 401.085938 84.507813 400.886719 88.183594 C 400.71875 91.285156 400.589844 95.011719 398.976563 97.746094 C 397.792969 99.757813 395.984375 100.964844 393.804688 101.695313 C 392.847656 102.011719 391.824219 102.183594 390.828125 102.324219 C 389.476563 102.511719 388.113281 102.621094 386.75 102.707031 C 383.417969 102.910156 380.078125 102.945313 376.742188 102.941406 C 373.824219 102.9375 370.90625 102.894531 367.988281 102.84375 C 365.707031 102.804688 363.425781 102.75 361.140625 102.75 C 357.003906 102.75 352.871094 102.796875 348.734375 102.820313 C 341.902344 102.863281 335.066406 102.898438 328.234375 102.914063 C 320.753906 102.929688 313.269531 102.933594 305.789063 102.832031 C 303.207031 102.796875 300.625 102.753906 298.046875 102.640625 C 297.246094 102.609375 296.449219 102.570313 295.652344 102.5 C 295.515625 102.484375 295.378906 102.476563 295.246094 102.460938 L 294.40625 102.371094 L 312.898438 87.0625 C 312.886719 85.855469 312.699219 84.660156 312.339844 83.503906 C 310.601563 77.878906 305.191406 74.039063 299.988281 71.847656 C 296.632813 70.433594 293.035156 69.53125 289.421875 69.085938 C 285.972656 68.664063 282.445313 68.644531 278.996094 69.070313 C 274.3125 69.644531 269.691406 71.039063 265.609375 73.425781 C 263.207031 74.828125 260.890625 76.453125 259.09375 78.597656 C 257.027344 81.066406 255.941406 83.890625 255.707031 87.089844 C 258.699219 89.613281 261.773438 92.03125 264.722656 94.601563 C 265.316406 95.117188 265.949219 95.589844 266.574219 96.078125 C 267.511719 96.8125 268.453125 97.546875 269.375 98.300781 C 270.125 98.910156 270.867188 99.527344 271.582031 100.179688 C 272.183594 100.722656 272.890625 101.378906 273.367188 102.035156 L 273.742188 102.554688 L 273.105469 102.597656 C 268.625 102.894531 264.128906 102.917969 259.640625 102.898438 C 255.628906 102.878906 251.617188 102.808594 247.605469 102.808594 C 242.957031 102.808594 238.308594 102.839844 233.660156 102.855469 C 225.269531 102.882813 216.878906 102.90625 208.484375 102.917969 C 199.699219 102.933594 190.910156 102.941406 182.125 102.898438 C 179.109375 102.882813 176.09375 102.867188 173.078125 102.816406 C 172.15625 102.800781 171.234375 102.785156 170.3125 102.753906 C 170.027344 102.742188 169.742188 102.730469 169.457031 102.714844 C 169.414063 102.710938 169.371094 102.710938 169.324219 102.707031 L 168.992188 102.683594 Z M 158.875 76.734375 C 159.25 80.886719 158.898438 91.996094 158.945313 97.503906 C 158.96875 100.421875 158.078125 100.363281 156.234375 101.625 C 149.777344 106.039063 139.714844 105.5625 136.066406 99.253906 C 132.472656 93.046875 133.460938 81.613281 137.738281 77.074219 C 142.671875 71.839844 152.949219 72.496094 158.875 76.734375 Z M 157.1875 47.015625 C 155.835938 47.332031 154.496094 47.941406 153.574219 49.007813 C 152.855469 49.835938 152.464844 50.863281 152.480469 51.960938 C 152.503906 53.507813 153.316406 54.945313 154.542969 55.867188 C 156.078125 57.027344 158.015625 57.25 159.863281 56.847656 C 161.875 56.40625 163.480469 55.140625 163.875 53.050781 C 164.191406 51.398438 163.636719 49.625 162.484375 48.410156 C 161.085938 46.9375 159.121094 46.558594 157.1875 47.015625 Z M 621.097656 116.605469 C 613.882813 118.8125 617.535156 128.296875 624.929688 126.082031 C 626.890625 125.496094 628.40625 124.113281 628.628906 122.007813 C 628.804688 120.328125 628.074219 118.628906 626.792969 117.539063 C 625.183594 116.167969 623.066406 116.007813 621.097656 116.605469 Z M 476.609375 102.460938 L 635.472656 102.371094 C 635.296875 100.949219 635.011719 99.53125 634.71875 98.132813 C 634.457031 96.898438 634.175781 95.664063 633.929688 94.425781 C 632.347656 86.566406 632.019531 80.148438 624.136719 75.957031 C 619.132813 73.296875 613.191406 73.414063 607.753906 74.363281 C 605.554688 74.746094 603.191406 75.253906 601.125 76.125 C 600.566406 76.359375 600.03125 76.628906 599.5 76.921875 C 599.082031 77.148438 598.671875 77.390625 598.242188 77.59375 C 597.53125 77.929688 596.851563 78.09375 596.070313 78.167969 C 594.828125 78.285156 593.472656 78.179688 592.238281 78.058594 L 591.914063 78.027344 L 591.941406 71.117188 L 592.167969 71.027344 C 594.15625 70.242188 596.175781 69.53125 598.234375 68.945313 C 603.074219 67.570313 607.863281 66.988281 612.882813 66.894531 C 617.617188 66.804688 622.359375 67.070313 626.796875 68.847656 C 628.902344 69.691406 630.835938 70.824219 632.683594 72.125 C 637.671875 75.644531 641.011719 81.59375 642.363281 87.457031 C 642.90625 89.808594 643.425781 92.164063 643.9375 94.523438 C 644.257813 96.007813 644.570313 97.5 644.929688 98.976563 C 645.121094 99.75 645.339844 100.648438 645.667969 101.375 C 645.824219 101.714844 646.03125 102.078125 646.371094 102.257813 C 646.726563 102.449219 647.261719 102.457031 647.65625 102.457031 C 648.476563 102.464844 649.269531 102.449219 650.09375 102.507813 C 650.3125 102.523438 650.53125 102.535156 650.75 102.539063 C 650.90625 102.539063 651.039063 102.535156 651.160156 102.664063 C 651.191406 102.699219 651.214844 102.734375 651.230469 102.777344 C 651.253906 102.800781 651.292969 102.832031 651.316406 102.847656 L 651.359375 102.882813 L 651.390625 102.925781 C 652.074219 103.886719 652.003906 108.667969 651.464844 109.714844 L 651.445313 109.746094 L 651.421875 109.777344 C 651.164063 110.085938 650.511719 110.167969 650.136719 110.207031 C 649.511719 110.273438 648.867188 110.285156 648.238281 110.289063 C 647.660156 110.289063 647.082031 110.277344 646.507813 110.261719 C 646.144531 110.25 645.773438 110.230469 645.414063 110.230469 L 511.550781 110.230469 C 504.296875 110.230469 497.039063 110.339844 489.785156 110.398438 C 481.601563 110.464844 473.410156 110.480469 465.230469 110.199219 L 464.933594 110.191406 L 464.890625 109.898438 C 464.84375 109.582031 464.832031 109.238281 464.816406 108.917969 C 464.789063 108.367188 464.773438 107.816406 464.757813 107.265625 C 464.71875 105.597656 464.703125 103.925781 464.691406 102.257813 C 464.65625 97.585938 464.664063 92.914063 464.675781 88.238281 C 464.6875 83.96875 464.707031 79.699219 464.730469 75.425781 C 464.742188 72.726563 464.765625 70.023438 464.765625 67.320313 C 464.765625 66.28125 464.785156 65.246094 464.808594 64.207031 C 464.824219 63.441406 464.847656 62.671875 464.828125 61.90625 C 464.8125 61.175781 464.777344 60.027344 464.25 59.453125 C 463.902344 59.070313 463.347656 58.921875 462.855469 58.84375 C 461.917969 58.691406 460.839844 58.714844 459.890625 58.738281 L 459.523438 58.746094 L 459.59375 52.5 L 459.953125 52.507813 C 460.285156 52.511719 460.625 52.503906 460.953125 52.496094 C 461.558594 52.488281 462.164063 52.476563 462.769531 52.464844 C 464.429688 52.433594 466.085938 52.410156 467.746094 52.410156 C 469.4375 52.410156 471.15625 52.425781 472.84375 52.535156 C 473.492188 52.574219 475.328125 52.679688 475.828125 53.113281 L 475.84375 53.128906 L 475.855469 53.144531 C 476.460938 53.816406 476.59375 56.8125 476.640625 57.707031 C 476.785156 60.410156 476.789063 63.148438 476.777344 65.855469 C 476.765625 68.257813 476.726563 70.65625 476.683594 73.054688 C 476.65625 74.621094 476.605469 76.195313 476.605469 77.761719 C 476.605469 85.996094 476.601563 94.226563 476.609375 102.460938 Z M 141.226563 47.015625 C 139.878906 47.332031 138.535156 47.941406 137.613281 49.007813 C 136.894531 49.835938 136.507813 50.863281 136.523438 51.960938 C 136.546875 53.507813 137.355469 54.945313 138.582031 55.867188 C 140.121094 57.027344 142.058594 57.25 143.902344 56.847656 C 145.914063 56.40625 147.519531 55.140625 147.917969 53.050781 C 148.230469 51.398438 147.675781 49.625 146.523438 48.410156 C 145.125 46.9375 143.160156 46.558594 141.226563 47.015625 Z M 303.089844 85.050781 C 302.699219 78.726563 291.953125 75.882813 284.484375 75.902344 C 278.078125 75.917969 266.066406 78.394531 265.761719 85.15625 C 266.675781 85.679688 267.257813 86.359375 268.210938 87.066406 L 275.117188 92.914063 C 276.574219 94.144531 283.148438 99.863281 284.484375 100.511719 C 286.617188 99.359375 300.363281 86.683594 303.089844 85.050781 Z M 407.613281 99.914063 C 410.308594 102.113281 412.886719 104.113281 417.820313 104.683594 C 427.613281 105.808594 434.214844 102.3125 435.109375 91.957031 C 437.097656 68.871094 419.394531 69.324219 413.78125 75.816406 C 410.722656 79.351563 411.109375 82.386719 410.515625 87.628906 C 409.550781 96.121094 407.835938 98.171875 407.613281 99.914063 Z M 407.613281 99.914063 "/>
</g>
</svg>
